# xmcd
#
# Track frame offsets:
#	150
#	18048
#	32355
#	48055
#	75643
#	96764
#	114733
#	133096
#
# Disc length: 2359 seconds
#
# Revision: 5
# Processed by: cddbd v1.5.2PL0 Copyright (c) Steve Scherf et al.
# Submitted via: EasyCDDAExtractor 16.0.6.1
#
DISCID=53093508
DTITLE=Poco - C-112 Deliverin'
DYEAR=1971
DGENRE=County-Rock
TTITLE0=I Guess You Made It
TTITLE1=C'mon
TTITLE2=Hear That Music
TTITLE3=Kind Woman
TTITLE4=Medley: Hard Luck  Child's Claim to Fame  Pickin' Up the Pieces
TTITLE5=You Better Think Twice
TTITLE6=A Man like Me
TTITLE7=Medley: Just in Case It Happens, Yes Indeed  Grand Junction  Consequ
TTITLE7=ently, So Long
EXTD=Jim Messina [b.1947]: lead guitar, vocals\nRichie Furay [b.1944]: rhythm 
EXTD=guitar, vocals\nRusty Young [b.1946]: pedal steel guitar, Dobro, backing 
EXTD=vocals\nTimothy B. "Timmy" Schmit [b.1947]: bass, vocals\nGeorge Grantham
EXTD=[b.1947]: drums, vocals\nRecorded by Stan Tonkel and Stan Weiss live in 
EXTD=concert at the Boston Music Hall [Orpheum Theatre], Boston US-MA, 1970-09
EXTD=22, and the Felt Forum, Madison Square Garden, New York US-NY, 1970-09-2
EXTD=3.\nProduced by Jim Messina.\nOriginally issued as Epic LP BN-26279 (1971
EXTD=01-13).\nCD: Sony/Epic EK 30209 (1990-03-20, 2008-03-01), UPC 8869724505
EXTD=20.
EXTT0=(Richie Furay)
EXTT1=(Richie Furay)
EXTT2=(Timothy B. Schmit)
EXTT3=(Richie Furay)
EXTT4=(Timothy B. Schmit  Richie Furay  Richie Furay)
EXTT5=(Jim Messina)
EXTT6=(Richie Furay)
EXTT7=(Richie Furay  Rusty Young  Richie Furay//Skip Goodwin)
PLAYORDER=
